<svg xmlns="http://www.w3.org/2000/svg" version="1.1" xmlns:xlink="http://www.w3.org/1999/xlink" xmlns:svgjs="http://svgjs.com/svgjs" width="1440" height="560" preserveAspectRatio="none" viewBox="0 0 1440 560"><g mask="url(&quot;#SvgjsMask1012&quot;)" fill="none"><rect width="1440" height="560" x="0" y="0" fill="#0e2a47"></rect><path d="M237.47 157.93 a102.82 102.82 0 1 0 205.64 0 a102.82 102.82 0 1 0 -205.64 0z" fill="rgba(28, 83, 142, 0.4)" class="triangle-float3"></path><path d="M396.1310302500541 562.7034085132916L371.0063805133154 480.524382133383 288.82735413340686 505.64903187012175 313.9520038701455 587.8280582500303z" fill="rgba(28, 83, 142, 0.4)" class="triangle-float3"></path><path d="M248.7881451418574 549.4677237224856L312.1285897145911 602.6166674020715 360.181782947603 481.03152870317797z" fill="rgba(28, 83, 142, 0.4)" class="triangle-float2"></path><path d="M1043.8374225035534 465.3541550302015L1149.153757243144 459.8347598042701 1143.6343620172127 354.5184250646796 1038.318027277622 360.03782029061097z" fill="rgba(28, 83, 142, 0.4)" class="triangle-float2"></path><path d="M1145.1942188214246 448.6569353036702L1158.0269265416807 357.3474753347533 1014.6463827281773 383.7531437388275z" fill="rgba(28, 83, 142, 0.4)" class="triangle-float1"></path><path d="M1278.48 269.85 a113.76 113.76 0 1 0 227.52 0 a113.76 113.76 0 1 0 -227.52 0z" fill="rgba(28, 83, 142, 0.4)" class="triangle-float1"></path><path d="M802.71 60.41 a176.32 176.32 0 1 0 352.64 0 a176.32 176.32 0 1 0 -352.64 0z" fill="rgba(28, 83, 142, 0.4)" class="triangle-float3"></path><path d="M812.761670514111 131.4813890461287L911.6978468588549 89.48547377571248 869.7019315884387-9.45070256903145 770.7657552436947 32.545212701384784z" fill="rgba(28, 83, 142, 0.4)" class="triangle-float3"></path><path d="M814.0339898892325 197.34805272387337L900.7161134884402 149.29936701368496 785.3020231235538 43.300524469967826z" fill="rgba(28, 83, 142, 0.4)" class="triangle-float3"></path><path d="M1070.132,577.02C1124.647,578.532,1188.729,580.905,1216.6,534.029C1244.788,486.621,1215.768,428.975,1185.617,382.791C1158.922,341.9,1118.964,309.43,1070.132,309.671C1021.669,309.91,981.968,342.624,956.603,383.92C929.736,427.663,911.074,482.024,937.092,526.277C962.875,570.13,1019.281,575.61,1070.132,577.02" fill="rgba(28, 83, 142, 0.4)" class="triangle-float1"></path><path d="M821 104 a150.03 150.03 0 1 0 300.06 0 a150.03 150.03 0 1 0 -300.06 0z" fill="rgba(28, 83, 142, 0.4)" class="triangle-float1"></path><path d="M1182.733,658.718C1235.947,659.733,1279.803,621.805,1306.461,575.738C1333.173,529.579,1345.589,471.801,1316.924,426.829C1289.733,384.169,1233.313,380.654,1182.733,381.621C1134.425,382.545,1082.337,390.566,1057.146,431.796C1031.121,474.39,1042.75,527.495,1066.92,571.168C1092.036,616.55,1130.874,657.729,1182.733,658.718" fill="rgba(28, 83, 142, 0.4)" class="triangle-float2"></path><path d="M1043.522,482.34C1096.699,484.991,1148.961,456.19,1173.105,408.736C1195.529,364.662,1174.536,315.373,1150.44,272.191C1125.462,227.428,1094.668,179.931,1043.522,176.513C987.699,172.782,933.417,205.882,908.611,256.03C885.931,301.88,908.344,352.906,934.537,396.844C959.877,439.352,994.095,479.876,1043.522,482.34" fill="rgba(28, 83, 142, 0.4)" class="triangle-float1"></path><path d="M1267.506,490.576C1315.498,486.556,1353.149,454.156,1377.449,412.576C1402.023,370.525,1414.835,320.23,1392.286,277.059C1368.208,230.96,1319.509,201.34,1267.506,202.082C1216.66,202.807,1175.991,237.597,1148.743,280.532C1118.838,327.653,1092.777,385.54,1120.246,434.121C1147.979,483.169,1211.358,495.279,1267.506,490.576" fill="rgba(28, 83, 142, 0.4)" class="triangle-float2"></path><path d="M1122.668,394.356C1155.334,393.227,1181.102,368.531,1195.739,339.307C1208.837,313.155,1205.149,283.262,1191.181,257.564C1176.435,230.433,1153.494,206.687,1122.668,204.866C1088.859,202.868,1055.726,219.365,1038.534,248.545C1021.097,278.141,1023.126,314.925,1040.294,344.678C1057.47,374.445,1088.321,395.543,1122.668,394.356" fill="rgba(28, 83, 142, 0.4)" class="triangle-float1"></path><path d="M42.006,278.616C82.103,278.364,122.267,260.515,140.501,224.802C157.519,191.471,143.01,152.735,122.136,121.673C103.973,94.646,74.529,79.854,42.006,78.239C5.844,76.444,-32.822,83.04,-53.202,112.967C-75.969,146.399,-78.809,190.984,-58.653,226.052C-38.436,261.226,1.437,278.871,42.006,278.616" fill="rgba(28, 83, 142, 0.4)" class="triangle-float3"></path><path d="M214.18912832870913 383.2964103328186L175.4029476416862 550.570347015122 319.69131558680516 509.19632328818994z" fill="rgba(28, 83, 142, 0.4)" class="triangle-float2"></path><path d="M166.32 221.14 a137.72 137.72 0 1 0 275.44 0 a137.72 137.72 0 1 0 -275.44 0z" fill="rgba(28, 83, 142, 0.4)" class="triangle-float1"></path><path d="M478.5 145.99 a115.78 115.78 0 1 0 231.56 0 a115.78 115.78 0 1 0 -231.56 0z" fill="rgba(28, 83, 142, 0.4)" class="triangle-float1"></path><path d="M252.52602633221755 32.60246412575953L392.6996840794114 47.47038702099215 344.5533364934691-65.95529984512262z" fill="rgba(28, 83, 142, 0.4)" class="triangle-float1"></path></g><defs><mask id="SvgjsMask1012"><rect width="1440" height="560" fill="#ffffff"></rect></mask><style>
            @keyframes float1 {
                0%{transform: translate(0, 0)}
                50%{transform: translate(-10px, 0)}
                100%{transform: translate(0, 0)}
            }

            .triangle-float1 {
                animation: float1 5s infinite;
            }

            @keyframes float2 {
                0%{transform: translate(0, 0)}
                50%{transform: translate(-5px, -5px)}
                100%{transform: translate(0, 0)}
            }

            .triangle-float2 {
                animation: float2 4s infinite;
            }

            @keyframes float3 {
                0%{transform: translate(0, 0)}
                50%{transform: translate(0, -10px)}
                100%{transform: translate(0, 0)}
            }

            .triangle-float3 {
                animation: float3 6s infinite;
            }
        </style></defs></svg>